<?xml version="1.0" encoding="utf-8"?>
<!-- Generator: Adobe Illustrator 27.0.0, SVG Export Plug-In . SVG Version: 6.00 Build 0)  -->
<svg version="1.1" id="Capa_1" xmlns="http://www.w3.org/2000/svg" xmlns:xlink="http://www.w3.org/1999/xlink" x="0px" y="0px"
	 viewBox="0 0 448 512" style="enable-background:new 0 0 448 512;" xml:space="preserve">
<path d="M161.2,87.5l-5.1,10.1H88.2c-12.5,0-22.6,10.1-22.6,22.6s10.1,22.6,22.6,22.6h271.5c12.5,0,22.6-10.1,22.6-22.6
	s-10.1-22.6-22.6-22.6h-67.9l-5.1-10.1C283,79.8,275.1,75,266.6,75h-85.1C172.9,75,165,79.8,161.2,87.5z M359.8,165.5H88.2l15,239.7
	c1.1,17.9,16,31.8,33.9,31.8h173.8c17.9,0,32.7-13.9,33.9-31.8L359.8,165.5z"/>
</svg>
